<svg width="100" height="100" viewBox="0 0 100 100" fill="none" xmlns="http://www.w3.org/2000/svg">
<circle cx="50" cy="50" r="45" fill="#262626" stroke="#333333" stroke-width="10"/>
<path d="M46.36 72.31C47.06 71.7033 47.9 71.4 48.88 71.4C49.86 71.4 50.6533 71.68 51.26 72.24C51.9133 72.8 52.24 73.57 52.24 74.55C52.24 75.4833 51.9367 76.23 51.33 76.79C50.77 77.35 49.9533 77.63 48.88 77.63C47.8533 77.63 47.0133 77.3733 46.36 76.86C45.7067 76.3 45.38 75.53 45.38 74.55C45.38 73.6633 45.7067 72.9167 46.36 72.31ZM39.85 38.71H38.45V25.27H39.22V28C42.0667 25.9467 45.4267 24.8733 49.3 24.78C53.8733 24.78 57.56 25.8067 60.36 27.86C63.16 29.9133 64.56 32.62 64.56 35.98C64.56 38.0333 63.79 40.11 62.25 42.21C60.71 44.2633 59.03 45.99 57.21 47.39C55.39 48.79 53.71 50.33 52.17 52.01C50.63 53.69 49.86 55.1833 49.86 56.49V62.72H47.76V56.49C47.76 54.7633 48.32 52.9433 49.44 51.03C50.6067 49.1167 51.8667 47.46 53.22 46.06C54.5733 44.66 55.81 43.05 56.93 41.23C58.0967 39.3633 58.68 37.6133 58.68 35.98C58.68 29.7733 55.5767 26.67 49.37 26.67C46.1033 26.67 43.8167 27.4867 42.51 29.12C41.25 30.7067 40.3633 32.9467 39.85 35.84V38.71Z" fill="#D6BA8D"/>
</svg>
