<?xml version="1.0" standalone="no"?>
<!DOCTYPE svg PUBLIC "-//W3C//DTD SVG 20010904//EN"
 "http://www.w3.org/TR/2001/REC-SVG-20010904/DTD/svg10.dtd">
<svg version="1.0" xmlns="http://www.w3.org/2000/svg"
 width="2048.000000pt" height="2048.000000pt" viewBox="0 0 2048.000000 2048.000000"
 preserveAspectRatio="xMidYMid meet">

<g transform="translate(0.000000,2048.000000) scale(0.100000,-0.100000)"
fill="#000000" stroke="none">
<path d="M9733 19119 c-2119 -92 -3954 -855 -5508 -2289 -1278 -1180 -2164
-2701 -2606 -4474 -30 -120 -32 -134 -22 -206 13 -98 43 -161 108 -225 62 -63
124 -94 213 -106 42 -6 533 -8 1233 -7 1339 4 1217 -6 1324 102 58 59 64 70
159 296 247 588 457 1051 542 1192 244 407 611 864 956 1190 438 415 875 721
1428 998 711 357 1416 547 2230 601 221 15 769 6 980 -16 1254 -128 2337 -605
3280 -1444 52 -47 97 -86 99 -88 3 -2 -364 -374 -815 -826 -537 -538 -834
-843 -859 -881 -149 -230 -152 -539 -9 -764 113 -176 276 -295 464 -339 71
-17 224 -18 2730 -18 2980 0 2699 -7 2865 75 199 98 357 294 400 496 22 104
22 5334 0 5438 -49 233 -253 459 -482 535 -220 73 -445 41 -643 -92 -25 -16
-261 -244 -525 -506 -264 -262 -611 -606 -772 -765 l-292 -289 -98 89 c-944
864 -2039 1501 -3278 1907 -990 325 -2024 463 -3102 416z"/>
<path d="M1980 8875 c-281 -57 -513 -285 -574 -565 -15 -69 -16 -300 -14
-2745 l3 -2670 29 -84 c83 -236 295 -431 530 -486 78 -19 254 -19 332 0 77 18
157 53 231 101 37 24 342 321 825 802 l766 765 45 -39 c24 -21 109 -97 188
-168 1371 -1229 3165 -2011 4989 -2175 512 -46 1158 -44 1685 5 1810 168 3369
831 4765 2027 381 327 799 759 1114 1152 807 1006 1365 2143 1711 3489 49 190
56 227 50 275 -15 124 -103 244 -218 297 l-62 29 -1185 0 -1185 0 -57 -27
c-68 -32 -129 -92 -162 -161 -13 -29 -96 -221 -184 -427 -302 -708 -389 -886
-560 -1145 -446 -676 -979 -1212 -1642 -1650 -555 -367 -1177 -643 -1804 -800
-298 -75 -590 -123 -951 -157 -181 -17 -776 -16 -950 0 -360 35 -606 76 -915
153 -911 225 -1774 681 -2486 1312 l-104 92 809 810 c644 645 819 826 858 886
158 243 149 565 -21 802 -115 162 -276 267 -464 303 -106 20 -5292 19 -5392
-1z"/>
</g>
</svg>
