<svg width="25" height="15" viewBox="0 0 25 15" fill="none" xmlns="http://www.w3.org/2000/svg">
<path d="M10.32 13.98L9.08 9.66C8.78 8.34 7.92 7.78 7.24 7.62V7.52C9.14 7.28 9.82 6.1 9.82 4.04C9.82 0.9 8.42 0 5.02 0C2.66 0 1.58 0.0200009 0 0.18V13.98H2.48V8.44L4.96 8.46C5.8 8.46 6.28 8.8 6.56 9.7L7.66 13.98H10.32ZM2.48 6.4V2.06H4.96C6.72 2.06 7.28 2.5 7.28 4.2C7.28 5.9 6.72 6.38 4.96 6.4H2.48Z" fill="#D6BA8D"/>
<path d="M24.2181 0.18H21.6981V8.58C21.6981 11.24 20.9981 12.1 18.9581 12.1C16.8781 12.1 16.1781 11.24 16.1781 8.58V0.18H13.6781V8.58C13.6781 12.7 15.1181 14.24 19.0581 14.24C22.8381 14.24 24.2181 12.7 24.2181 8.58V0.18Z" fill="#D6BA8D"/>
</svg>
